<svg width="820" height="164" viewBox="0 0 820 164" fill="none" xmlns="http://www.w3.org/2000/svg">
  <defs>
    <linearGradient id="plaqueBg" x1="410" y1="12" x2="410" y2="152" gradientUnits="userSpaceOnUse">
      <stop offset="0" stop-color="#7B5A32"/>
      <stop offset="0.22" stop-color="#B88B4A"/>
      <stop offset="0.52" stop-color="#5B3E21"/>
      <stop offset="0.78" stop-color="#C89C57"/>
      <stop offset="1" stop-color="#6E4D2A"/>
    </linearGradient>
    <linearGradient id="plaqueInner" x1="410" y1="26" x2="410" y2="138" gradientUnits="userSpaceOnUse">
      <stop offset="0" stop-color="#24180E"/>
      <stop offset="0.5" stop-color="#3A2716"/>
      <stop offset="1" stop-color="#1D140C"/>
    </linearGradient>
    <linearGradient id="edgeGlow" x1="410" y1="18" x2="410" y2="146" gradientUnits="userSpaceOnUse">
      <stop offset="0" stop-color="#F1D196" stop-opacity="0.95"/>
      <stop offset="1" stop-color="#8C632D" stop-opacity="0.7"/>
    </linearGradient>
    <filter id="shadow" x="0" y="0" width="820" height="164" filterUnits="userSpaceOnUse" color-interpolation-filters="sRGB">
      <feOffset dy="4"/>
      <feGaussianBlur stdDeviation="5"/>
      <feColorMatrix type="matrix" values="0 0 0 0 0.05 0 0 0 0 0.03 0 0 0 0 0.02 0 0 0 0.35 0"/>
      <feBlend in2="SourceGraphic" result="shape"/>
    </filter>
  </defs>

  <g filter="url(#shadow)">
    <rect x="18" y="18" width="784" height="128" rx="18" fill="url(#plaqueBg)"/>
    <rect x="26" y="26" width="768" height="112" rx="14" fill="url(#plaqueInner)" stroke="url(#edgeGlow)" stroke-width="2"/>
    <rect x="38" y="38" width="744" height="88" rx="10" fill="none" stroke="#D6B06B" stroke-opacity="0.75" stroke-width="1.5"/>

    <path d="M86 82H178" stroke="#D8B87A" stroke-width="1.5" stroke-linecap="round" opacity="0.85"/>
    <path d="M642 82H734" stroke="#D8B87A" stroke-width="1.5" stroke-linecap="round" opacity="0.85"/>
    <path d="M178 82L190 70L202 82L190 94L178 82Z" fill="#C79D58" opacity="0.9"/>
    <path d="M618 82L630 70L642 82L630 94L618 82Z" fill="#C79D58" opacity="0.9"/>

    <text x="410" y="72" text-anchor="middle" fill="#F6E7C3" font-family="Georgia, 'Times New Roman', serif" font-size="25" letter-spacing="0.2">
      "The cave you fear to enter holds the treasure you seek."
    </text>
    <text x="410" y="108" text-anchor="middle" fill="#D8B87A" font-family="Georgia, 'Times New Roman', serif" font-size="22">
      - Joseph Campbell
    </text>
  </g>
</svg>
